M48
;Layer_Color=9474304
;FILE_FORMAT=2:5
INCH,LZ
;TYPE=PLATED
T1F00S00C0.01181
T2F00S00C0.01968
T3F00S00C0.03150
T4F00S00C0.03540
T5F00S00C0.03543
T6F00S00C0.03937
T7F00S00C0.04016
T8F00S00C0.04331
T9F00S00C0.04724
T10F00S00C0.05118
T11F00S00C0.12205
T12F00S00C0.12598
%
T01
X0018Y0021
Y00432
X00283Y00805
X00666
X01055Y00507
X01602Y00971
Y010645
X02198Y00872
X02211Y00407
X02261Y00372
X02579Y0037886
Y00243
X03036Y0034
X0299Y00386
X02858Y00613
X03015Y00961
X03188Y00615
X0315867Y00386
X031215Y00341
X03207
X03243Y00386
X0307433Y00387
X03198Y0018
X03473Y00176
X03524
X03776Y00292
X03876Y00393
X0401Y00322
X04081
X03891Y00195
X04629Y00893
X04752
X04708Y0103
X05007
X05155
X05398Y01074
X05565Y0103
X05721Y01074
X05676Y00261
X05789
X0573Y00176
X05602
X05157Y0053
X04938Y00893
X04949Y01149
X050815
X05214
X05562
X04762
X04645
X04938Y01995
X05121
X05304
X05487
X05011Y02455
X03313Y02596
Y02133
X03188Y01273
X02858
X0267Y02133
Y02596
X01733Y02616
X0149Y02213
X01602Y01158
X01387Y01429
X01121
X00661
X00364
X00278Y02007
X00467
X0059Y0264
X00286
X01167Y02563
X01105Y02213
X01162Y02781
Y03123
Y03338
X01204Y0391386
X00907
X0061
X00313
X00286Y032
X0059
X01795Y03225
Y0336833
Y0351167
Y03655
X0267Y03806
Y03367
Y03039
X01541Y0283
X03313Y03039
Y03367
Y03806
X04305Y03329
X05363Y03232
Y03489
X05231Y04807
X05031
X04932Y05003
X05132
X05232Y05193
X05032
X04758Y0556
X0448567
X0421333
X03941
X033285Y05165
X03119
X029095
X0102Y05063
Y0484
Y04617
Y04394
X00693Y04496
Y04738
Y0498
X00477Y05064
Y04841
Y04618
Y04395
T02
X0067323Y0009843
X0061417Y0037402
X0091339
X0110493Y0051062
X01375Y00529
X0146063Y0055905
X01413Y00636
X01333Y00647
X01376Y00866
X01414Y0040569
X0146063Y0030709
X0133399Y0029836
X01338Y00104
X01281Y0011573
X0148Y00102
X0086221Y0072047
X0081102
X0076378
X00831Y00802
X008815Y008305
X01489Y00761
X01492Y00688
X0153543Y0053543
X0163779Y0052756
X0170866Y0049213
Y0037402
X0163779Y0033858
X01792Y0031982
X01851Y00327
X02164Y00319
X02183Y0023
X02272Y00174
X02352Y00178
X02629Y0033
X02767Y00304
X02827Y00288
X02853Y00208
X029Y00177
X02964Y00266
X0242063Y00717
X02273Y00701
X02266Y00763
X02285Y00635
X0234252Y01
X023889Y010475
X01746Y0093
X01689Y00912
X01644Y00806
X0153543Y0026772
X0156693Y0009449
X03262Y00185
X03459Y0025
X03538Y00276
X03545Y00327
X03677Y00303
X03678Y00524
X037441Y0049213
X03822Y00717
X0419Y0082
X04188Y0096
X04067Y01014
X0406693Y0044488
X04267Y00512
X04266Y0037
X0415Y00144
X04088Y00159
X04032Y00185
X0395669Y001461
X04555Y00167
X03534Y0095
X03465Y00882
X04792Y00433
X05182Y00441
X05179Y0029
X05313Y00234
X05437Y00239
X05473Y00125
X05437Y0044
X04693Y00124
X0483Y01368
X05207Y01402
X05473Y01399
X05628Y01837
X05684Y01909
X05478Y02392
X04701Y02152
X0406299Y0220866
X0374803Y0207874
X0382Y0198
X037441Y0187795
X0368898Y0185827
X03644Y01778
X03583Y01817
X03397Y01532
X03305Y01431
X0351723Y0128175
X0395669Y011811
X0406693Y0131496
X04144Y01536
X04209Y01595
X04187Y01779
X04221Y01817
X0406299Y0165748
X04555Y01318
X03115Y02382
X02971Y01629
X02708Y01775
X02637Y01817
X02305Y02482
X02262Y02532
X01772Y02431
X01565Y02434
X01493Y02423
X01579Y0262
X01769Y01234
X0182Y01131
X01455Y01099
X01432Y01803
X00882Y01808
X00683Y01767
X00921Y02266
X00998Y02361
X00994Y02436
X01247Y02441
X013Y02423
X01339Y02384
X01464Y02381
X01247Y02633
X00842Y02575
X00756Y02549
X00782Y02503
X00842Y02708
X00994Y0266864
X0092327Y0282273
X00996Y02918
X00991Y02992
X01087Y02892
X01241Y02998
X013Y02991
X01339Y02944
X01241Y03217
X01242Y03515
X01238Y03564
X01239Y03769
X0134Y03452
X01091Y03464
X00991Y03517
X00913Y03392
X00843Y03145
X00784Y0305171
X00744Y0309
X00767Y03634
X00764Y03689
X00843Y03705
X01614Y041
X01615Y03107
X01518Y0306
X01677Y02694
X02305Y02879
X02262Y02964
X02812Y03182
X02971Y03456
X02813Y04059
X03114Y03557
X0395669Y0362205
X03985Y04182
X0458268Y0421654
X04144Y02789
X04754Y03181
X04845Y03106
X0504Y02965
X047Y03355
X0470079Y0362205
Y0421654
X0463386
Y0445669
X0470079
X0462205Y0474803
X0458268Y0446063
X0425591Y0476378
X0420472Y0473205
X0415748Y0490158
X03994Y04928
X03893Y04876
X0365748Y0472835
X0360236Y0473228
X03517Y04733
X03465Y04727
Y04335
X03517Y04246
X0360236Y0444882
X0365748Y0444488
X03984Y04515
X0407817Y0514647
X0415748Y0512992
X0425197Y0513386
X0430709Y0514173
X0435433
X0445669Y0511417
X0365748Y0513386
X0360236Y0509842
X03518Y05273
X02489Y05175
X02549Y05114
X02232Y05118
X02199Y05174
X01994Y05019
X02179Y04832
X0234252Y0474409
X023891Y0472047
T03
X0023307Y0222402
X0033307
X0043307
X0053307
X0063307
Y0252008
X0053307
X0043307
X0033307
X0023307
Y0278012
X0033307
X0043307
X0053307
X0063307
Y0307618
X0053307
X0043307
X0033307
X0023307
Y0333622
X0033307
X0043307
X0053307
X0063307
Y0363228
X0053307
X0043307
X0033307
X0023307
T04
X0020827Y0521874
T05
X0020827Y0431874
Y0441874
Y0451874
Y0461874
Y0471874
Y0481874
Y0491874
Y0501874
Y0511874
X0120827
Y0521874
Y0501874
Y0491874
Y0481874
Y0471874
Y0461874
Y0451874
Y0441874
Y0431874
T06
X0034488Y0017717
Y0027716
X0044488
Y0017717
X0054488
X0064488
X0074488
X0084488
X0094488
X0104488
X0114488
X0124488
Y0027716
X0114488
X0104488
X0094488
X0084488
X0074488
X0064488
X0054488
X0468976Y0524311
Y0534311
X0478976
Y0524311
X0458976
Y0534311
X0448976
Y0524311
X0438976
Y0534311
X0428976
Y0524311
X0418976
Y0534311
X0408976
Y0524311
X0398976
Y0534311
X0388976
Y0524311
T07
X0028465Y0094331
X0038465
Y0104331
X0028465
X0107205Y0102362
Y0092362
X0117205
Y0102362
X0494095Y0062008
X0504095
Y0052008
Y0042008
X0494095
Y0052008
X0558071Y0051811
Y0061811
X0568071
Y0051811
Y0041811
X0558071
X0558307Y0135079
X0568307
Y0145079
Y0155079
X0558307
Y0145079
X0504095Y0144528
Y0154528
X0494095
Y0144528
Y0134528
X0504095
X0117205Y0112362
X0107205
X0105236Y0163228
X0115236
Y0173228
Y0183228
X0105236
Y0173228
X0039449Y0172244
Y0162244
X0029449
Y0172244
Y0182244
X0039449
X0038465Y0114331
X0028465
X030748Y0491142
X031748
X032748
X033748
Y0550197
X032748
X031748
X030748
X029748
X028748
X027748
X026748
X025748
X024748
X023748
X022748
Y0491142
X023748
X024748
X025748
X026748
X027748
X028748
X029748
T08
X0189272Y0078169
Y0088169
Y0098169
Y0108169
X0199272
Y0098169
Y0088169
Y0078169
X0429272
Y0088169
Y0098169
Y0108169
X0439272
Y0098169
Y0088169
Y0078169
Y0118169
Y0128169
Y0138169
Y0148169
Y0158169
Y0168169
Y0178169
Y0188169
Y0198169
Y0208169
Y0218169
Y0228169
Y0238169
Y0248169
Y0258169
X0429272
Y0248169
Y0238169
Y0228169
Y0218169
Y0208169
Y0198169
Y0188169
Y0178169
Y0168169
Y0158169
Y0148169
Y0138169
Y0128169
Y0118169
X0199272
Y0128169
Y0138169
Y0148169
Y0158169
Y0168169
Y0178169
Y0188169
Y0198169
Y0208169
Y0218169
Y0228169
Y0238169
Y0248169
Y0258169
X0189272
Y0248169
Y0238169
Y0228169
Y0218169
Y0208169
Y0198169
Y0188169
Y0178169
Y0168169
Y0158169
Y0148169
Y0138169
Y0128169
Y0118169
X01729Y04044
Y04144
X0293Y04128
Y04028
X0505905Y035563
Y034563
Y033563
Y032563
X05605Y04847
X05705
X0293Y04228
X01729Y04244
X016811Y0491968
Y0501968
Y0511969
Y0521969
T09
X0188894Y0405387
Y0415387
X0261894
Y0405387
X0308972
Y0415387
X0381972
Y0405387
X0429051
Y0415387
X0502051
Y0405387
X0554961Y0395669
X0564961Y0395669
X0574961Y0395669
X0502051Y0447387
Y0457387
X0429051
Y0447387
X0381972
Y0457387
X0308972
Y0447387
X0261894
Y0457387
X0188894
Y0447387
T10
X0563976Y0210394
Y0225394
Y0240394
Y0272547
Y0287547
Y0302547
X05647Y03347
Y03497
Y03647
T11
X0550138Y0512311
X0570138
Y0536311
X0550138
T12
X0200787Y0029528
X0437008Y0023622
X0516732Y054626
X0187008
M30
